# xmcd CD database file
#
# Track frame offsets:
#	182
#	13440
#	26387
#	41325
#	55070
#	68365
#	83815
#	96452
#	111415
#	125502
#	140490
#	152477
#	166617
#	183022
#
# Disc length: 2647 seconds
#
# Revision: 0
# Processed by: cddbd v1.5.2PL0 Copyright (c) Steve Scherf et al.
# Submitted via: CDex 1.51
#
DISCID=aa0a550e
DTITLE=AA.VV - Jazz Blues Soul 1937-28/3
DYEAR=1994
DGENRE=Jazz
TTITLE0=I've Got My Love to Keep Me Warm (Mildred Bailey)
TTITLE1=Rhythm, Rhythm (Lionel Hampton)
TTITLE2=Out of Nowhere (Coleman Hawkins)
TTITLE3=I Know You Gonna Miss Me (Big Joe Williams)
TTITLE4=John's Idea (Count Basie)
TTITLE5=The Man I Love (Benny Goodman)
TTITLE6=Swing, Brother, Swing (Willie Lewis)
TTITLE7=Sweet Patootie (William 'O'Neil' Spencer)
TTITLE8=The Blues Got Me (Garland Wilson)
TTITLE9=Katy Fly (Elijah Jones)
TTITLE10=A-Tisket, A Tasket (Ella Fitzgerald)
TTITLE11=Love Me or Leave Me (Teddy Grace)
TTITLE12=Really The Blues (Tommy Ladnier)
TTITLE13=A Room with a View (Helen Forrest)
EXTD=YEAR: 1994
EXTT0=
EXTT1=
EXTT2=
EXTT3=
EXTT4=
EXTT5=
EXTT6=
EXTT7=
EXTT8=
EXTT9=
EXTT10=
EXTT11=
EXTT12=
EXTT13=
PLAYORDER=
